<mxfile host="app.diagrams.net" modified="2024-01-08T09:39:51.714Z" agent="Mozilla/5.0 (Macintosh; Intel Mac OS X 10_15_7) AppleWebKit/537.36 (KHTML, like Gecko) Chrome/120.0.0.0 Safari/537.36" version="22.1.17" etag="26ALCcvGLj4_WZJWhQXZ" type="github">
  <diagram name="Page-1" id="TwDMEAtyULkvAep2DBd4">
    <mxGraphModel>
      <root>
        <mxCell id="0" />
        <mxCell id="1" parent="0" />
      </root>
    </mxGraphModel>
  </diagram>
</mxfile>
